<?xml version="1.0" encoding="UTF-8"?>
<svg id="a" xmlns="http://www.w3.org/2000/svg" xmlns:xlink="http://www.w3.org/1999/xlink"
  viewBox="0 0 191.72 74.05">
  <defs>
    <style>.c{fill:#329e79;}.c,.d,.e{stroke-width:0px;}.d{fill:url(#b);}.e{fill:#0d98b5;}</style>
    <linearGradient id="b" x1="23.98" y1="0" x2="23.98" y2="64.29" gradientUnits="userSpaceOnUse">
      <stop offset="0" stop-color="#77bf88" />
      <stop offset=".2" stop-color="#5ab896" />
      <stop offset=".4" stop-color="#44b2a1" />
      <stop offset=".53" stop-color="#3db1a6" />
      <stop offset=".59" stop-color="#31a8a6" />
      <stop offset=".71" stop-color="#209aa8" />
      <stop offset=".84" stop-color="#1692a8" />
      <stop offset="1" stop-color="#1390a9" />
    </linearGradient>
  </defs>
  <path class="d"
    d="m24.56,46.82v-12.07h2.88c.52,0,.98-.21,1.32-.55.34-.34.55-.8.55-1.32,0-1.03-.84-1.86-1.87-1.86h-2.88v-3.73h2.88c.52,0,.98-.21,1.32-.54.34-.34.55-.81.55-1.32,0-1.03-.84-1.86-1.87-1.86h-2.88v-3.73h2.88c.52,0,.98-.21,1.32-.54.34-.34.55-.8.55-1.32,0-1.03-.84-1.87-1.87-1.87h-2.88v-3.39c0-2.13-1.72-3.86-3.86-3.86h-3.44c-2.13,0-3.86,1.72-3.86,3.86v3.39h-2.88c-.51,0-.98.21-1.32.55-.34.34-.55.8-.55,1.32,0,1.03.84,1.86,1.87,1.86h2.88v3.73h-2.88c-.51,0-.98.21-1.32.54-.34.34-.55.81-.55,1.32,0,1.03.84,1.86,1.87,1.86h2.88v3.73h-2.88c-.51,0-.98.21-1.32.54-.34.34-.55.8-.55,1.32,0,1.03.84,1.87,1.87,1.87h2.88v8.21c0,2.13,1.72,3.86,3.86,3.86h7.3v16.67c0,5.84-4.74,10.57-10.57,10.57h-3.42c-5.84,0-10.57-4.74-10.57-10.57V10.57C0,4.74,4.74,0,10.57,0h13.5c12.76,0,23.54,10.01,23.89,22.76.36,13.22-10.25,24.06-23.4,24.06Z" />
  <path class="c"
    d="m59.76,72.8h-5.02c-1.43,0-1.82-.72-2.62-2.15l-4.05-7.43h-1.86v7.43c0,1.39-.76,2.15-2.15,2.15h-4.1c-1.39,0-2.15-.76-2.15-2.15v-23.14c0-1.39.76-2.15,2.15-2.15h10.43c7.26,0,11.15,3.55,11.15,9.16,0,3.59-2.03,6.12-5.07,7.52l4.77,8.61c.8,1.44-.04,2.15-1.48,2.15Zm-13.55-15.11h3.84c1.52,0,2.87-.89,2.87-2.66s-1.35-2.87-2.87-2.87h-3.84v5.53Z" />
  <path class="c"
    d="m65.76,70.65v-23.14c0-1.39.76-2.15,2.15-2.15h16.59c1.39,0,2.15.76,2.15,2.15v2.49c0,1.39-.76,2.15-2.15,2.15h-10.34v3.72h7.35c1.39,0,2.19.8,2.19,2.2v2.03c0,1.44-.8,2.2-2.19,2.2h-7.35v3.72h10.47c1.39,0,2.2.76,2.2,2.15v2.49c0,1.39-.8,2.15-2.2,2.15h-16.72c-1.39,0-2.15-.76-2.15-2.15Z" />
  <path class="c"
    d="m117.77,47.51l-11.32,23.35c-.72,1.48-1.48,2.15-2.95,2.15h-.51c-1.43,0-2.19-.68-2.91-2.15l-11.36-23.35c-.72-1.48.46-2.15,1.9-2.15h4.18c1.43,0,2.49.63,3.08,2.15l5.4,13.51,5.62-13.51c.63-1.48,1.6-2.15,3.08-2.15h3.88c1.44,0,2.62.68,1.9,2.15Z" />
  <path class="e"
    d="m120.94,70.65v-23.14c0-1.39.76-2.15,2.15-2.15h4.1c1.39,0,2.15.76,2.15,2.15v18.49h8.28c1.39,0,2.15.76,2.15,2.15v2.49c0,1.39-.76,2.15-2.15,2.15h-14.52c-1.39,0-2.15-.76-2.15-2.15Z" />
  <path class="e"
    d="m142.81,70.65v-23.14c0-1.39.76-2.15,2.15-2.15h16.59c1.39,0,2.15.76,2.15,2.15v2.49c0,1.39-.76,2.15-2.15,2.15h-10.34v3.72h7.35c1.39,0,2.19.8,2.19,2.2v2.03c0,1.44-.8,2.2-2.19,2.2h-7.35v3.72h10.47c1.39,0,2.2.76,2.2,2.15v2.49c0,1.39-.8,2.15-2.2,2.15h-16.72c-1.39,0-2.15-.76-2.15-2.15Z" />
  <path class="e"
    d="m189.93,72.8h-5.02c-1.44,0-1.82-.72-2.62-2.15l-4.05-7.43h-1.86v7.43c0,1.39-.76,2.15-2.15,2.15h-4.1c-1.39,0-2.15-.76-2.15-2.15v-23.14c0-1.39.76-2.15,2.15-2.15h10.43c7.26,0,11.15,3.55,11.15,9.16,0,3.59-2.03,6.12-5.07,7.52l4.77,8.61c.8,1.44-.04,2.15-1.48,2.15Zm-13.55-15.11h3.84c1.52,0,2.87-.89,2.87-2.66s-1.35-2.87-2.87-2.87h-3.84v5.53Z" />
</svg>